<svg width="1324" height="406" viewBox="0 0 1324 406" fill="none" xmlns="http://www.w3.org/2000/svg">
<g filter="url(#filter0_d_610_414)">
<ellipse cx="153.133" cy="232.09" rx="148.353" ry="148.09" fill="black"/>
<path d="M296.487 232.09C296.487 311.108 232.314 375.18 153.133 375.18C73.9533 375.18 9.78027 311.108 9.78027 232.09C9.78027 153.072 73.9533 89 153.133 89C232.314 89 296.487 153.072 296.487 232.09Z" stroke="black" stroke-width="10"/>
</g>
<path d="M191.73 95.3886C175.341 90.6322 159.958 90.5159 153.727 90.516C147.496 90.5159 132.706 90.516 116.318 95.2724C95.8325 101.218 94.9418 105.082 101.77 119.946C107.233 131.837 133.538 186.338 146.007 212.102C147.195 214.58 150.224 219.65 154.024 219.65C157.824 219.65 160.853 214.696 162.04 212.218C174.51 186.454 200.814 131.954 206.277 120.063C213.106 105.199 212.215 101.334 191.73 95.3886Z" fill="#E32322" stroke="black"/>
<path d="M70.6406 117.369C56.6958 127.191 47.0116 139.123 43.1261 143.985C39.2405 148.848 30.0175 160.389 23.5224 176.144C15.4037 195.837 17.8746 198.942 33.7733 202.883C46.4922 206.035 105.577 219.496 133.53 225.832C136.21 226.45 142.07 227.248 144.44 224.283C146.81 221.317 144.818 215.864 143.619 213.393C131.219 187.595 104.941 133.082 99.0355 121.403C91.6535 106.805 88.0717 105.091 70.6406 117.369Z" fill="#F18E1C" stroke="black"/>
<path d="M284.007 176.216C277.512 160.461 268.01 148.385 264.124 143.522C260.239 138.66 251.016 127.119 237.071 117.296C219.64 105.018 216.058 106.733 208.676 121.331C202.77 133.009 176.493 187.523 164.092 213.32C162.893 215.792 160.811 221.317 163.18 224.283C165.55 227.248 171.319 226.522 174 225.904C201.952 219.568 261.037 206.108 273.756 202.955C289.655 199.015 292.126 195.91 284.007 176.216Z" fill="#C4037D" stroke="black"/>
<path d="M277.399 299.445C285.687 284.552 289.219 269.606 290.604 263.541C291.989 257.477 295.275 243.083 294.272 226.075C293.017 204.816 289.44 203.091 273.405 206.433C260.576 209.108 201.498 222.597 173.563 229.008C170.879 229.613 165.253 231.434 164.409 235.133C163.564 238.831 167.73 242.88 169.886 244.587C192.28 262.448 239.666 300.161 250.067 308.12C263.067 318.07 267.04 318.062 277.399 299.445Z" fill="#2A71B0" stroke="black"/>
<path d="M11.8417 226.049C10.8379 243.057 14.1429 258.055 15.5277 264.119C16.9123 270.183 20.1991 284.577 28.4868 299.471C38.8465 318.087 42.819 318.095 55.8195 308.146C66.2199 300.187 113.607 262.474 136 244.612C138.156 242.906 142.435 238.831 141.591 235.133C140.746 231.434 135.234 229.587 132.55 228.982C104.615 222.571 45.5368 209.082 32.7085 206.407C16.673 203.065 13.0964 204.79 11.8417 226.049Z" fill="#F4E500" stroke="black"/>
<path d="M60.2404 338.954C72.9334 350.343 86.7396 357.117 92.3522 359.818C97.9648 362.519 111.287 368.931 128.119 371.751C149.158 375.276 151.642 372.181 151.958 355.832C152.21 342.753 152.227 282.256 152.204 253.643C152.212 250.897 151.689 245.016 148.266 243.369C144.843 241.721 139.959 244.871 137.812 246.588C115.371 264.39 67.965 302.079 57.8709 310.422C45.2533 320.851 44.3743 324.718 60.2404 338.954Z" fill="#8CBB26" stroke="black"/>
<path d="M736.528 143.04C761.488 143.04 782.768 152 800.368 169.92C817.968 187.52 826.768 208.8 826.768 233.76V307.68C826.768 312.16 825.168 316 821.968 319.2C818.768 322.4 814.928 324 810.448 324C805.968 324 802.128 322.4 798.928 319.2C795.728 316 794.128 312.16 794.128 307.68V303.36C777.488 317.12 758.288 324 736.528 324C711.568 324 690.288 315.2 672.688 297.6C655.088 280 646.288 258.72 646.288 233.76C646.288 208.8 655.088 187.52 672.688 169.92C690.288 152 711.568 143.04 736.528 143.04ZM736.528 291.36C752.528 291.36 766.128 285.76 777.328 274.56C788.528 263.04 794.128 249.44 794.128 233.76C794.128 217.76 788.528 204.16 777.328 192.96C766.128 181.76 752.528 176.16 736.528 176.16C720.528 176.16 706.928 181.76 695.728 192.96C684.528 204.16 678.928 217.76 678.928 233.76C678.928 249.44 684.528 263.04 695.728 274.56C706.928 285.76 720.528 291.36 736.528 291.36ZM891.425 405.6C886.945 405.6 882.945 404 879.425 400.8C876.225 397.6 874.625 393.76 874.625 389.28V231.84C874.625 207.2 883.745 186.24 901.985 168.96C920.545 151.68 941.665 143.04 965.345 143.04C990.305 143.04 1011.59 152 1029.19 169.92C1046.79 187.52 1055.59 208.8 1055.59 233.76C1055.59 258.72 1046.79 280 1029.19 297.6C1011.59 315.2 990.305 324 965.345 324C943.585 324 924.385 317.12 907.745 303.36V389.28C907.745 393.76 906.145 397.6 902.945 400.8C899.745 404 895.905 405.6 891.425 405.6ZM965.345 291.36C981.025 291.36 994.465 285.76 1005.67 274.56C1017.19 263.04 1022.95 249.44 1022.95 233.76C1022.95 217.76 1017.19 204.16 1005.67 192.96C994.465 181.76 981.025 176.16 965.345 176.16C949.345 176.16 935.745 181.76 924.545 192.96C913.345 204.16 907.745 217.76 907.745 233.76C907.745 249.44 913.345 263.04 924.545 274.56C935.745 285.76 949.345 291.36 965.345 291.36ZM1188.87 324C1163.91 324 1142.63 315.2 1125.03 297.6C1107.43 280 1098.63 258.72 1098.63 233.76C1098.63 208.8 1107.43 187.52 1125.03 169.92C1142.63 152 1163.91 143.04 1188.87 143.04C1213.83 143.04 1235.11 152 1252.71 169.92C1270.63 187.52 1279.59 208.8 1279.59 233.76C1279.59 258.72 1270.63 280 1252.71 297.6C1235.11 315.2 1213.83 324 1188.87 324ZM1188.87 291.36C1204.87 291.36 1218.47 285.76 1229.67 274.56C1240.87 263.04 1246.47 249.44 1246.47 233.76C1246.47 217.76 1240.87 204.16 1229.67 192.96C1218.47 181.76 1204.87 176.16 1188.87 176.16C1173.19 176.16 1159.75 181.76 1148.55 192.96C1137.35 204.16 1131.75 217.76 1131.75 233.76C1131.75 249.44 1137.35 263.04 1148.55 274.56C1159.75 285.76 1173.19 291.36 1188.87 291.36Z" fill="black"/>
<path fill-rule="evenodd" clip-rule="evenodd" d="M476.8 170.925C462.144 153.642 443.718 145 421.52 145C401.68 145 384.88 152.04 371.12 166.12C357.04 180.2 350 197.16 350 217V309.64C350 314.12 351.6 317.96 354.8 321.16C358 324.36 361.84 325.96 366.32 325.96C370.8 325.96 374.64 324.36 377.84 321.16C381.04 317.96 382.64 314.12 382.64 309.64V217C382.64 206.12 386.48 197 394.16 189.64C401.84 181.96 410.96 178.12 421.52 178.12C432.4 178.12 441.68 181.96 449.36 189.64C456.72 197 460.4 206.12 460.4 217V309.64C460.4 314.12 462 317.96 465.2 321.16C468.311 324.271 472.177 325.869 476.8 325.956V170.925Z" fill="black"/>
<mask id="path-12-outside-1_610_414" maskUnits="userSpaceOnUse" x="475.8" y="143" width="129" height="183" fill="black">
<rect fill="white" x="475.8" y="143" width="129" height="183"/>
<path fill-rule="evenodd" clip-rule="evenodd" d="M477 169.925C491.656 152.642 510.082 144 532.28 144C552.12 144 568.92 151.04 582.68 165.12C596.76 179.2 603.8 196.16 603.8 216V308.64C603.8 313.12 602.2 316.96 599 320.16C595.8 323.36 591.96 324.96 587.48 324.96C583 324.96 579.16 323.36 575.96 320.16C572.76 316.96 571.16 313.12 571.16 308.64V216C571.16 205.12 567.32 196 559.64 188.64C551.96 180.96 542.84 177.12 532.28 177.12C521.4 177.12 512.12 180.96 504.44 188.64C497.08 196 493.4 205.12 493.4 216V308.64C493.4 313.12 491.8 316.96 488.6 320.16C485.489 323.271 481.622 324.869 477 324.956V169.925Z"/>
</mask>
<path fill-rule="evenodd" clip-rule="evenodd" d="M477 169.925C491.656 152.642 510.082 144 532.28 144C552.12 144 568.92 151.04 582.68 165.12C596.76 179.2 603.8 196.16 603.8 216V308.64C603.8 313.12 602.2 316.96 599 320.16C595.8 323.36 591.96 324.96 587.48 324.96C583 324.96 579.16 323.36 575.96 320.16C572.76 316.96 571.16 313.12 571.16 308.64V216C571.16 205.12 567.32 196 559.64 188.64C551.96 180.96 542.84 177.12 532.28 177.12C521.4 177.12 512.12 180.96 504.44 188.64C497.08 196 493.4 205.12 493.4 216V308.64C493.4 313.12 491.8 316.96 488.6 320.16C485.489 323.271 481.622 324.869 477 324.956V169.925Z" fill="black"/>
<path d="M477 169.925H476V169.558L476.237 169.278L477 169.925ZM582.68 165.12L581.973 165.827L581.965 165.819L582.68 165.12ZM599 320.16L599.707 320.867L599.707 320.867L599 320.16ZM559.64 188.64L558.948 189.362L558.94 189.355L558.933 189.347L559.64 188.64ZM504.44 188.64L505.147 189.347L505.147 189.347L504.44 188.64ZM477 324.956L477.019 325.956L476 325.975V324.956H477ZM476.237 169.278C491.078 151.776 509.781 143 532.28 143V145C510.383 145 492.233 153.507 477.762 170.572L476.237 169.278ZM532.28 143C552.387 143 569.445 150.147 583.395 164.421L581.965 165.819C568.394 151.933 551.853 145 532.28 145V143ZM583.387 164.413C597.654 178.68 604.8 195.894 604.8 216H602.8C602.8 196.426 595.866 179.72 581.973 165.827L583.387 164.413ZM604.8 216V308.64H602.8V216H604.8ZM604.8 308.64C604.8 313.388 603.092 317.482 599.707 320.867L598.293 319.453C601.307 316.438 602.8 312.852 602.8 308.64H604.8ZM599.707 320.867C596.322 324.252 592.228 325.96 587.48 325.96V323.96C591.692 323.96 595.278 322.467 598.293 319.453L599.707 320.867ZM587.48 325.96C582.732 325.96 578.638 324.252 575.253 320.867L576.667 319.453C579.681 322.467 583.268 323.96 587.48 323.96V325.96ZM575.253 320.867C571.867 317.482 570.16 313.388 570.16 308.64H572.16C572.16 312.852 573.652 316.438 576.667 319.453L575.253 320.867ZM570.16 308.64V216H572.16V308.64H570.16ZM570.16 216C570.16 205.386 566.426 196.529 558.948 189.362L560.332 187.918C568.214 195.471 572.16 204.854 572.16 216H570.16ZM558.933 189.347C551.434 181.849 542.566 178.12 532.28 178.12V176.12C543.113 176.12 552.485 180.071 560.347 187.933L558.933 189.347ZM532.28 178.12C521.664 178.12 512.639 181.855 505.147 189.347L503.733 187.933C511.601 180.065 521.135 176.12 532.28 176.12V178.12ZM505.147 189.347C497.984 196.51 494.4 205.372 494.4 216H492.4C492.4 204.868 496.176 195.49 503.733 187.933L505.147 189.347ZM494.4 216V308.64H492.4V216H494.4ZM494.4 308.64C494.4 313.388 492.692 317.482 489.307 320.867L487.893 319.453C490.907 316.438 492.4 312.852 492.4 308.64H494.4ZM489.307 320.867C486.003 324.171 481.885 325.865 477.019 325.956L476.981 323.956C481.36 323.874 484.975 322.371 487.893 319.453L489.307 320.867ZM476 324.956V169.925H478V324.956H476Z" fill="black" mask="url(#path-12-outside-1_610_414)"/>
<defs>
<filter id="filter0_d_610_414" x="0.780273" y="84" width="304.707" height="304.18" filterUnits="userSpaceOnUse" color-interpolation-filters="sRGB">
<feFlood flood-opacity="0" result="BackgroundImageFix"/>
<feColorMatrix in="SourceAlpha" type="matrix" values="0 0 0 0 0 0 0 0 0 0 0 0 0 0 0 0 0 0 127 0" result="hardAlpha"/>
<feOffset dy="4"/>
<feGaussianBlur stdDeviation="2"/>
<feComposite in2="hardAlpha" operator="out"/>
<feColorMatrix type="matrix" values="0 0 0 0 0 0 0 0 0 0 0 0 0 0 0 0 0 0 0.25 0"/>
<feBlend mode="normal" in2="BackgroundImageFix" result="effect1_dropShadow_610_414"/>
<feBlend mode="normal" in="SourceGraphic" in2="effect1_dropShadow_610_414" result="shape"/>
</filter>
</defs>
</svg>
