<svg width="306" height="305" viewBox="0 0 306 305" fill="none" xmlns="http://www.w3.org/2000/svg">
<g filter="url(#filter0_d_610_490)">
<mask id="path-1-inside-1_610_490" fill="white">
<path fill-rule="evenodd" clip-rule="evenodd" d="M301.487 148.09C301.487 229.878 235.067 296.18 153.133 296.18C71.2003 296.18 4.78027 229.878 4.78027 148.09C4.78027 66.3021 71.2003 0 153.133 0C235.067 0 301.487 66.3021 301.487 148.09ZM191.73 11.3885C175.341 6.63207 159.958 6.51579 153.727 6.51587C147.496 6.51579 132.706 6.51587 116.318 11.2723C95.8325 17.2178 94.9418 21.0824 101.77 35.9462C107.233 47.8373 133.538 102.338 146.007 128.102C147.195 130.579 150.224 135.65 154.024 135.65C157.824 135.65 160.853 130.696 162.04 128.218C174.51 102.454 200.814 47.9535 206.277 36.0624C213.106 21.1986 212.215 17.334 191.73 11.3885ZM43.1261 59.9856C47.0116 55.1233 56.6958 43.1915 70.6406 33.3689C88.0717 21.0907 91.6535 22.8056 99.0355 37.4034C104.941 49.0817 131.219 103.596 143.619 129.393C144.818 131.864 146.81 137.318 144.44 140.283C142.07 143.249 136.21 142.45 133.53 141.832C105.577 135.496 46.4921 122.036 33.7733 118.883C17.8746 114.942 15.4037 111.838 23.5224 92.1439C30.0175 76.3891 39.2405 64.8478 43.1261 59.9856ZM284.007 92.2161C277.512 76.4613 268.01 64.3844 264.124 59.5222C260.239 54.66 251.016 43.1187 237.071 33.2962C219.64 21.018 216.058 22.7329 208.676 37.3307C202.77 49.009 176.493 103.523 164.092 129.32C162.893 131.792 160.811 137.317 163.18 140.283C165.55 143.248 171.319 142.522 174 141.904C201.952 135.568 261.037 122.108 273.756 118.955C289.655 115.015 292.126 111.91 284.007 92.2161ZM290.604 179.541C289.219 185.606 285.687 200.552 277.399 215.445C267.04 234.062 263.067 234.07 250.067 224.12C239.666 216.161 192.28 178.448 169.886 160.587C167.73 158.88 163.564 154.831 164.409 151.133C165.253 147.434 170.879 145.613 173.563 145.008C201.498 138.597 260.576 125.108 273.405 122.433C289.44 119.091 293.017 120.816 294.272 142.075C295.275 159.083 291.989 173.477 290.604 179.541ZM11.8417 142.049C10.8379 159.057 14.1429 174.055 15.5277 180.119C16.9123 186.183 20.1991 200.577 28.4868 215.471C38.8465 234.087 42.819 234.095 55.8195 224.146C66.2199 216.187 113.607 178.474 136 160.612C138.156 158.906 142.435 154.831 141.591 151.133C140.746 147.434 135.234 145.587 132.55 144.982C104.615 138.571 45.5368 125.082 32.7085 122.407C16.673 119.065 13.0964 120.79 11.8417 142.049ZM92.3522 275.818C86.7396 273.117 72.9334 266.343 60.2404 254.954C44.3743 240.718 45.2533 236.851 57.8709 226.422C67.965 218.079 115.371 180.39 137.812 162.588C139.959 160.871 144.843 157.721 148.266 159.369C151.689 161.016 152.212 166.897 152.204 169.643C152.227 198.256 152.21 258.753 151.958 271.832C151.642 288.181 149.158 291.276 128.119 287.751C111.287 284.931 97.9648 278.519 92.3522 275.818Z"/>
</mask>
<path fill-rule="evenodd" clip-rule="evenodd" d="M301.487 148.09C301.487 229.878 235.067 296.18 153.133 296.18C71.2003 296.18 4.78027 229.878 4.78027 148.09C4.78027 66.3021 71.2003 0 153.133 0C235.067 0 301.487 66.3021 301.487 148.09ZM191.73 11.3885C175.341 6.63207 159.958 6.51579 153.727 6.51587C147.496 6.51579 132.706 6.51587 116.318 11.2723C95.8325 17.2178 94.9418 21.0824 101.77 35.9462C107.233 47.8373 133.538 102.338 146.007 128.102C147.195 130.579 150.224 135.65 154.024 135.65C157.824 135.65 160.853 130.696 162.04 128.218C174.51 102.454 200.814 47.9535 206.277 36.0624C213.106 21.1986 212.215 17.334 191.73 11.3885ZM43.1261 59.9856C47.0116 55.1233 56.6958 43.1915 70.6406 33.3689C88.0717 21.0907 91.6535 22.8056 99.0355 37.4034C104.941 49.0817 131.219 103.596 143.619 129.393C144.818 131.864 146.81 137.318 144.44 140.283C142.07 143.249 136.21 142.45 133.53 141.832C105.577 135.496 46.4921 122.036 33.7733 118.883C17.8746 114.942 15.4037 111.838 23.5224 92.1439C30.0175 76.3891 39.2405 64.8478 43.1261 59.9856ZM284.007 92.2161C277.512 76.4613 268.01 64.3844 264.124 59.5222C260.239 54.66 251.016 43.1187 237.071 33.2962C219.64 21.018 216.058 22.7329 208.676 37.3307C202.77 49.009 176.493 103.523 164.092 129.32C162.893 131.792 160.811 137.317 163.18 140.283C165.55 143.248 171.319 142.522 174 141.904C201.952 135.568 261.037 122.108 273.756 118.955C289.655 115.015 292.126 111.91 284.007 92.2161ZM290.604 179.541C289.219 185.606 285.687 200.552 277.399 215.445C267.04 234.062 263.067 234.07 250.067 224.12C239.666 216.161 192.28 178.448 169.886 160.587C167.73 158.88 163.564 154.831 164.409 151.133C165.253 147.434 170.879 145.613 173.563 145.008C201.498 138.597 260.576 125.108 273.405 122.433C289.44 119.091 293.017 120.816 294.272 142.075C295.275 159.083 291.989 173.477 290.604 179.541ZM11.8417 142.049C10.8379 159.057 14.1429 174.055 15.5277 180.119C16.9123 186.183 20.1991 200.577 28.4868 215.471C38.8465 234.087 42.819 234.095 55.8195 224.146C66.2199 216.187 113.607 178.474 136 160.612C138.156 158.906 142.435 154.831 141.591 151.133C140.746 147.434 135.234 145.587 132.55 144.982C104.615 138.571 45.5368 125.082 32.7085 122.407C16.673 119.065 13.0964 120.79 11.8417 142.049ZM92.3522 275.818C86.7396 273.117 72.9334 266.343 60.2404 254.954C44.3743 240.718 45.2533 236.851 57.8709 226.422C67.965 218.079 115.371 180.39 137.812 162.588C139.959 160.871 144.843 157.721 148.266 159.369C151.689 161.016 152.212 166.897 152.204 169.643C152.227 198.256 152.21 258.753 151.958 271.832C151.642 288.181 149.158 291.276 128.119 287.751C111.287 284.931 97.9648 278.519 92.3522 275.818Z" fill="white"/>
<path d="M153.727 6.51587L153.727 16.5159L153.727 16.5159L153.727 6.51587ZM191.73 11.3885L188.942 20.9922L188.942 20.9922L191.73 11.3885ZM116.318 11.2723L119.105 20.876L119.105 20.876L116.318 11.2723ZM101.77 35.9462L110.857 31.7716L110.857 31.7716L101.77 35.9462ZM146.007 128.102L155.025 123.779L155.017 123.763L155.008 123.746L146.007 128.102ZM162.04 128.218L153.039 123.862L153.031 123.879L153.023 123.896L162.04 128.218ZM206.277 36.0624L215.364 40.237L215.364 40.237L206.277 36.0624ZM70.6406 33.3689L76.3993 41.5443L76.3993 41.5443L70.6406 33.3689ZM43.1261 59.9856L50.938 66.2285L50.9382 66.2283L43.1261 59.9856ZM99.0355 37.4034L107.959 32.8907L107.959 32.8907L99.0355 37.4034ZM143.619 129.393L134.606 133.725L134.614 133.742L134.622 133.759L143.619 129.393ZM144.44 140.283L136.628 134.04L136.628 134.04L144.44 140.283ZM133.53 141.832L135.777 132.088L135.758 132.083L135.74 132.079L133.53 141.832ZM33.7733 118.883L36.179 109.177L36.179 109.177L33.7733 118.883ZM23.5224 92.1439L32.7676 95.9553L32.7676 95.9553L23.5224 92.1439ZM264.124 59.5222L256.312 65.765L256.312 65.7652L264.124 59.5222ZM284.007 92.2161L274.762 96.0275L274.762 96.0275L284.007 92.2161ZM237.071 33.2962L242.829 25.1207L242.829 25.1207L237.071 33.2962ZM208.676 37.3307L217.6 41.8434L217.6 41.8434L208.676 37.3307ZM164.092 129.32L173.089 133.686L173.097 133.669L173.105 133.652L164.092 129.32ZM163.18 140.283L155.368 146.526L155.368 146.526L163.18 140.283ZM174 141.904L171.789 132.151L171.771 132.156L171.753 132.16L174 141.904ZM273.756 118.955L276.162 128.662L276.162 128.662L273.756 118.955ZM277.399 215.445L268.661 210.582L268.661 210.582L277.399 215.445ZM290.604 179.541L280.855 177.315L280.855 177.315L290.604 179.541ZM250.067 224.12L243.989 232.062L243.989 232.062L250.067 224.12ZM169.886 160.587L176.122 152.769L176.107 152.757L176.093 152.746L169.886 160.587ZM164.409 151.133L154.66 148.907L154.66 148.907L164.409 151.133ZM173.563 145.008L175.763 154.763L175.781 154.759L175.799 154.755L173.563 145.008ZM273.405 122.433L275.445 132.223L275.445 132.223L273.405 122.433ZM294.272 142.075L304.254 141.486L304.254 141.486L294.272 142.075ZM15.5277 180.119L25.2768 177.893L25.2768 177.893L15.5277 180.119ZM11.8417 142.049L1.85905 141.46L1.85905 141.46L11.8417 142.049ZM28.4868 215.471L37.225 210.608L37.225 210.608L28.4868 215.471ZM55.8195 224.146L49.7421 216.205L49.7421 216.205L55.8195 224.146ZM136 160.612L129.794 152.771L129.779 152.783L129.764 152.795L136 160.612ZM141.591 151.133L131.842 153.359L131.842 153.359L141.591 151.133ZM132.55 144.982L130.314 154.729L130.332 154.733L130.35 154.737L132.55 144.982ZM32.7085 122.407L34.7492 112.618L34.7492 112.618L32.7085 122.407ZM60.2404 254.954L66.9189 247.511L66.9189 247.511L60.2404 254.954ZM92.3522 275.818L96.689 266.807L96.6887 266.807L92.3522 275.818ZM57.8709 226.422L51.5001 218.714L51.5001 218.714L57.8709 226.422ZM137.812 162.588L144.026 170.422L144.041 170.41L144.056 170.399L137.812 162.588ZM148.266 159.369L152.603 150.358L152.603 150.358L148.266 159.369ZM152.204 169.643L142.204 169.614L142.203 169.632L142.204 169.651L152.204 169.643ZM151.958 271.832L161.956 272.025L161.956 272.025L151.958 271.832ZM128.119 287.751L126.466 297.614L126.466 297.614L128.119 287.751ZM153.133 306.18C240.573 306.18 311.487 235.417 311.487 148.09H291.487C291.487 224.338 229.561 286.18 153.133 286.18V306.18ZM-5.21973 148.09C-5.21973 235.417 65.6942 306.18 153.133 306.18V286.18C76.7064 286.18 14.7803 224.338 14.7803 148.09H-5.21973ZM153.133 -10C65.6942 -10 -5.21973 60.7625 -5.21973 148.09H14.7803C14.7803 71.8417 76.7064 10 153.133 10V-10ZM311.487 148.09C311.487 60.7625 240.573 -10 153.133 -10V10C229.561 10 291.487 71.8417 291.487 148.09H311.487ZM153.727 16.5159C159.771 16.5158 173.976 16.6485 188.942 20.9922L194.517 1.78481C176.706 -3.38434 160.145 -3.48421 153.727 -3.48413L153.727 16.5159ZM119.105 20.876C134.052 16.5379 147.641 16.5158 153.727 16.5159L153.727 -3.48413C147.351 -3.48421 131.361 -3.5062 113.531 1.66861L119.105 20.876ZM110.857 31.7716C109.166 28.0898 108.356 25.9166 108.051 24.5199C107.789 23.3205 108.178 23.9497 107.597 25.023C107.151 25.8479 106.861 25.518 108.919 24.4876C110.931 23.4804 114.109 22.3262 119.105 20.876L113.531 1.66861C108.285 3.19116 103.669 4.74963 99.9656 6.60369C96.3086 8.43455 92.3819 11.1146 90.0059 15.5068C87.4955 20.1475 87.6617 24.9013 88.5127 28.7928C89.3206 32.4869 90.9605 36.3707 92.6833 40.1208L110.857 31.7716ZM155.008 123.746C142.507 97.9157 116.266 43.5445 110.857 31.7716L92.6833 40.1208C98.2005 52.1302 124.568 106.761 137.006 132.459L155.008 123.746ZM154.024 125.65C155.364 125.65 156.257 126.107 156.569 126.298C156.847 126.469 156.824 126.519 156.56 126.219C156.32 125.945 156.03 125.549 155.727 125.06C155.431 124.581 155.188 124.12 155.025 123.779L136.99 132.425C137.794 134.103 139.307 136.874 141.511 139.392C143.423 141.576 147.668 145.65 154.024 145.65V125.65ZM153.023 123.896C152.872 124.211 152.64 124.649 152.352 125.107C152.058 125.575 151.778 125.95 151.548 126.208C151.297 126.49 151.281 126.435 151.56 126.267C151.873 126.079 152.737 125.65 154.024 125.65V145.65C160.29 145.65 164.518 141.714 166.475 139.519C168.7 137.024 170.23 134.267 171.058 132.541L153.023 123.896ZM197.19 31.8878C191.782 43.6606 165.541 98.0319 153.039 123.862L171.042 132.575C183.479 106.877 209.847 52.2464 215.364 40.237L197.19 31.8878ZM188.942 20.9922C193.939 22.4424 197.117 23.5966 199.129 24.6038C201.187 25.6342 200.897 25.9641 200.451 25.1392C199.87 24.0659 200.259 23.4367 199.997 24.6361C199.691 26.0328 198.882 28.206 197.19 31.8879L215.364 40.237C217.087 36.4869 218.727 32.6031 219.535 28.909C220.386 25.0175 220.552 20.2637 218.042 15.623C215.666 11.2308 211.739 8.55075 208.082 6.7199C204.379 4.86583 199.763 3.30737 194.517 1.78481L188.942 20.9922ZM64.882 25.1935C49.7249 35.8699 39.3169 48.7337 35.3141 53.7428L50.9382 66.2283C54.7063 61.5129 63.6667 50.513 76.3993 41.5443L64.882 25.1935ZM107.959 32.8907C106.097 29.2073 104.078 25.5065 101.69 22.5737C99.1744 19.4841 95.5621 16.3979 90.3761 15.4655C85.4654 14.5825 80.9232 15.972 77.207 17.6849C73.4455 19.4186 69.3461 22.0489 64.882 25.1935L76.3993 41.5443C80.6506 38.5497 83.5357 36.7901 85.5789 35.8483C87.6675 34.8857 87.7505 35.3141 86.8368 35.1498C85.6479 34.9361 85.4047 34.2483 86.1814 35.2022C87.0858 36.3129 88.2833 38.3006 90.1117 41.9161L107.959 32.8907ZM152.632 125.06C140.263 99.3292 113.924 44.6851 107.959 32.8907L90.1117 41.9161C95.9585 53.4783 122.174 107.862 134.606 133.725L152.632 125.06ZM152.252 146.526C156.17 141.622 155.721 135.853 155.223 132.957C154.656 129.663 153.451 126.749 152.616 125.027L134.622 133.759C134.775 134.074 134.974 134.528 135.153 135.038C135.336 135.558 135.455 136.01 135.513 136.348C135.577 136.719 135.523 136.694 135.566 136.367C135.615 136 135.82 135.051 136.628 134.04L152.252 146.526ZM131.283 151.576C133.096 151.994 136.206 152.541 139.548 152.391C142.442 152.262 148.282 151.494 152.252 146.526L136.628 134.04C137.468 132.989 138.385 132.576 138.728 132.453C139.034 132.343 139.056 132.393 138.654 132.411C138.288 132.428 137.796 132.407 137.222 132.339C136.661 132.271 136.147 132.173 135.777 132.088L131.283 151.576ZM31.3675 128.589C44.2124 131.773 103.438 145.265 131.319 151.584L135.74 132.079C107.716 125.727 48.7719 112.298 36.179 109.177L31.3675 128.589ZM14.2773 88.3325C12.198 93.3763 10.5388 97.9529 9.68054 102.003C8.83266 106.004 8.48282 110.746 10.4422 115.342C12.5103 120.194 16.3327 123.024 19.9037 124.783C23.2961 126.454 27.3564 127.595 31.3675 128.589L36.179 109.177C32.2408 108.201 30.0302 107.476 28.7416 106.841C27.6315 106.295 28.3626 106.379 28.8404 107.5C29.2096 108.366 28.7706 108.392 29.246 106.149C29.711 103.955 30.7875 100.758 32.7676 95.9553L14.2773 88.3325ZM35.3142 53.7426C31.3379 58.7182 21.3459 71.1863 14.2773 88.3325L32.7676 95.9553C38.689 81.5919 47.143 70.9773 50.938 66.2285L35.3142 53.7426ZM256.312 65.7652C260.081 70.4812 268.833 81.6453 274.762 96.0275L293.252 88.4048C286.191 71.2773 275.939 58.2877 271.936 53.2793L256.312 65.7652ZM231.312 41.4716C244.028 50.4286 252.518 61.0169 256.312 65.765L271.936 53.2795C267.959 48.3031 258.003 35.8089 242.829 25.1207L231.312 41.4716ZM217.6 41.8434C219.428 38.2279 220.626 36.2402 221.53 35.1294C222.307 34.1755 222.063 34.8633 220.874 35.0771C219.961 35.2414 220.044 34.8129 222.132 35.7756C224.176 36.7174 227.061 38.477 231.312 41.4716L242.829 25.1207C238.365 21.9762 234.266 19.3459 230.504 17.6121C226.788 15.8993 222.246 14.5098 217.335 15.3927C212.149 16.3252 208.537 19.4114 206.021 22.501C203.633 25.4338 201.615 29.1346 199.752 32.818L217.6 41.8434ZM173.105 133.652C185.537 107.789 211.753 53.4055 217.6 41.8434L199.752 32.818C193.788 44.6124 167.448 99.2565 155.08 124.988L173.105 133.652ZM170.992 134.04C171.834 135.093 172.035 136.082 172.08 136.45C172.12 136.778 172.066 136.795 172.137 136.403C172.202 136.046 172.33 135.574 172.524 135.033C172.714 134.503 172.924 134.026 173.089 133.686L155.096 124.954C154.284 126.627 153.057 129.537 152.459 132.83C151.941 135.684 151.394 141.552 155.368 146.526L170.992 134.04ZM171.753 132.16C171.41 132.239 170.921 132.331 170.381 132.393C169.83 132.455 169.359 132.471 169.012 132.452C168.632 132.431 168.663 132.384 168.967 132.497C169.308 132.623 170.186 133.031 170.992 134.04L155.368 146.526C159.282 151.423 165.004 152.265 167.935 152.423C171.271 152.603 174.381 152.079 176.247 151.648L171.753 132.16ZM271.35 109.249C258.757 112.37 199.813 125.799 171.789 132.151L176.21 151.657C204.092 145.337 263.317 131.845 276.162 128.662L271.35 109.249ZM274.762 96.0275C276.742 100.831 277.818 104.027 278.283 106.221C278.759 108.465 278.32 108.438 278.689 107.572C279.167 106.451 279.898 106.367 278.788 106.914C277.499 107.548 275.289 108.273 271.35 109.249L276.162 128.662C280.173 127.667 284.233 126.526 287.626 124.855C291.197 123.096 295.019 120.266 297.087 115.414C299.047 110.818 298.697 106.076 297.849 102.075C296.991 98.0251 295.331 93.4485 293.252 88.4047L274.762 96.0275ZM286.138 220.308C295.147 204.117 298.927 188.015 300.353 181.767L280.855 177.315C279.512 183.196 276.227 196.987 268.661 210.582L286.138 220.308ZM243.989 232.062C247.27 234.572 250.696 237.029 254.121 238.635C257.727 240.325 262.32 241.539 267.396 240.131C272.206 238.797 275.696 235.574 278.3 232.418C280.935 229.224 283.484 225.076 286.138 220.308L268.661 210.582C266.135 215.123 264.302 217.957 262.873 219.689C261.412 221.46 261.154 221.107 262.05 220.859C263.214 220.536 263.728 221.05 262.61 220.526C261.309 219.916 259.364 218.643 256.144 216.179L243.989 232.062ZM163.651 168.404C185.987 186.22 233.486 224.024 243.989 232.062L256.144 216.179C245.847 208.299 198.572 170.676 176.122 152.769L163.651 168.404ZM154.66 148.907C153.262 155.028 156.179 160.03 157.885 162.419C159.827 165.138 162.179 167.24 163.68 168.428L176.093 152.746C175.817 152.528 175.441 152.204 175.057 151.822C174.665 151.432 174.36 151.075 174.16 150.795C173.941 150.488 173.999 150.486 174.102 150.798C174.218 151.15 174.446 152.095 174.158 153.359L154.66 148.907ZM171.362 135.253C169.547 135.662 166.508 136.518 163.561 138.103C161.01 139.474 156.077 142.701 154.66 148.907L174.158 153.359C173.857 154.675 173.208 155.448 172.951 155.709C172.722 155.943 172.678 155.908 173.031 155.718C173.354 155.545 173.805 155.35 174.352 155.163C174.887 154.98 175.392 154.846 175.763 154.763L171.362 135.253ZM271.364 112.644C258.409 115.345 199.19 128.867 171.326 135.261L175.799 154.755C203.806 148.328 262.744 134.871 275.445 132.223L271.364 112.644ZM304.254 141.486C303.933 136.041 303.436 131.199 302.447 127.179C301.47 123.206 299.723 118.787 295.962 115.5C291.995 112.031 287.326 111.14 283.345 111.103C279.563 111.069 275.41 111.8 271.364 112.644L275.445 132.223C279.417 131.395 281.724 131.089 283.162 131.102C284.401 131.114 283.712 131.355 282.799 130.558C282.095 129.941 282.479 129.731 283.026 131.956C283.562 134.134 283.983 137.48 284.289 142.665L304.254 141.486ZM300.353 181.768C301.77 175.561 305.347 159.997 304.254 141.486L284.289 142.665C285.204 158.168 282.207 171.393 280.855 177.315L300.353 181.768ZM25.2768 177.893C23.9338 172.011 20.9081 158.163 21.8243 142.639L1.85905 141.46C0.767751 159.951 4.35211 176.098 5.77864 182.345L25.2768 177.893ZM37.225 210.608C29.6692 197.03 26.6289 183.815 25.2768 177.893L5.77858 182.345C7.19571 188.551 10.729 204.125 19.7487 220.333L37.225 210.608ZM49.7421 216.205C46.5221 218.669 44.5769 219.942 43.2765 220.551C42.1579 221.076 42.6727 220.562 43.8358 220.884C44.7322 221.133 44.4739 221.485 43.0133 219.715C41.5839 217.983 39.7515 215.148 37.225 210.608L19.7487 220.333C22.402 225.101 24.9511 229.249 27.5864 232.443C30.1906 235.6 33.6804 238.823 38.49 240.157C43.5662 241.565 48.1592 240.351 51.7655 238.66C55.1901 237.055 58.6166 234.598 61.8969 232.087L49.7421 216.205ZM129.764 152.795C107.314 170.702 60.0392 208.324 49.7421 216.205L61.8969 232.087C72.4005 224.049 119.9 186.246 142.236 168.43L129.764 152.795ZM131.842 153.359C131.541 152.042 131.791 151.062 131.91 150.712C132.016 150.4 132.072 150.41 131.837 150.733C131.622 151.027 131.301 151.397 130.89 151.802C130.488 152.197 130.091 152.536 129.794 152.771L142.206 168.453C143.665 167.299 146.035 165.211 148.004 162.506C149.71 160.164 152.758 155.115 151.34 148.907L131.842 153.359ZM130.35 154.737C130.694 154.814 131.174 154.943 131.687 155.122C132.21 155.304 132.641 155.494 132.944 155.661C133.277 155.844 133.227 155.872 133 155.637C132.746 155.373 132.13 154.622 131.842 153.359L151.34 148.907C149.943 142.789 145.148 139.546 142.577 138.133C139.648 136.524 136.618 135.648 134.751 135.227L130.35 154.737ZM30.6677 132.197C43.369 134.845 102.307 148.302 130.314 154.729L134.787 135.235C106.923 128.841 47.7046 115.319 34.7492 112.618L30.6677 132.197ZM21.8243 142.639C22.1303 137.454 22.5513 134.108 23.087 131.93C23.6345 129.705 24.0186 129.915 23.3138 130.532C22.4015 131.329 21.7123 131.088 22.951 131.076C24.3889 131.063 26.6958 131.369 30.6677 132.197L34.7492 112.618C30.7034 111.774 26.5499 111.043 22.768 111.077C18.7869 111.114 14.1185 112.005 10.1508 115.474C6.39053 118.761 4.64307 123.18 3.66591 127.153C2.67703 131.173 2.1804 136.015 1.85905 141.46L21.8243 142.639ZM53.562 262.397C67.3583 274.776 82.2348 282.047 88.0158 284.829L96.6887 266.807C91.2445 264.187 78.5085 257.91 66.9189 247.511L53.562 262.397ZM51.5001 218.714C48.3169 221.345 45.1515 224.131 42.818 227.107C40.3609 230.24 38.1423 234.449 38.3848 239.72C38.6144 244.711 40.9881 248.832 43.4873 252.068C46.0178 255.345 49.4988 258.751 53.562 262.397L66.9189 247.511C63.049 244.039 60.6901 241.623 59.3173 239.845C57.9133 238.027 58.3204 237.859 58.3637 238.801C58.4199 240.022 57.7952 240.418 58.5558 239.449C59.44 238.321 61.1161 236.713 64.2417 234.13L51.5001 218.714ZM131.597 154.753C109.213 172.51 61.6944 210.288 51.5001 218.714L64.2417 234.13C74.2356 225.87 121.528 188.269 144.026 170.422L131.597 154.753ZM152.603 150.358C146.957 147.641 141.439 149.354 138.726 150.481C135.639 151.763 133.063 153.581 131.568 154.777L144.056 170.399C144.33 170.18 144.73 169.885 145.189 169.596C145.658 169.302 146.075 169.085 146.395 168.952C146.746 168.806 146.739 168.862 146.416 168.892C146.054 168.926 145.09 168.938 143.93 168.379L152.603 150.358ZM162.203 169.672C162.209 167.812 162.052 164.659 161.161 161.433C160.389 158.634 158.335 153.117 152.603 150.358L143.93 168.379C142.719 167.797 142.111 166.996 141.912 166.685C141.734 166.408 141.776 166.371 141.882 166.755C141.979 167.104 142.068 167.585 142.128 168.157C142.187 168.716 142.205 169.236 142.204 169.614L162.203 169.672ZM161.956 272.025C162.211 258.816 162.227 198.175 162.204 169.635L142.204 169.651C142.227 198.338 142.209 258.69 141.959 271.639L161.956 272.025ZM126.466 297.614C131.854 298.516 136.69 299.113 140.831 299.049C144.922 298.985 149.62 298.273 153.665 295.351C157.939 292.263 159.857 287.914 160.784 284.038C161.664 280.36 161.876 276.15 161.956 272.025L141.959 271.639C141.881 275.688 141.665 277.997 141.332 279.387C141.047 280.58 140.97 279.849 141.954 279.138C142.709 278.593 142.822 279.015 140.519 279.051C138.268 279.086 134.903 278.748 129.771 277.889L126.466 297.614ZM88.0155 284.829C93.7594 287.593 108.154 294.545 126.466 297.614L129.771 277.889C114.42 275.316 102.17 269.445 96.689 266.807L88.0155 284.829Z" fill="white" mask="url(#path-1-inside-1_610_490)"/>
</g>
<defs>
<filter id="filter0_d_610_490" x="0.780273" y="0" width="304.707" height="304.18" filterUnits="userSpaceOnUse" color-interpolation-filters="sRGB">
<feFlood flood-opacity="0" result="BackgroundImageFix"/>
<feColorMatrix in="SourceAlpha" type="matrix" values="0 0 0 0 0 0 0 0 0 0 0 0 0 0 0 0 0 0 127 0" result="hardAlpha"/>
<feOffset dy="4"/>
<feGaussianBlur stdDeviation="2"/>
<feComposite in2="hardAlpha" operator="out"/>
<feColorMatrix type="matrix" values="0 0 0 0 0 0 0 0 0 0 0 0 0 0 0 0 0 0 0.25 0"/>
<feBlend mode="normal" in2="BackgroundImageFix" result="effect1_dropShadow_610_490"/>
<feBlend mode="normal" in="SourceGraphic" in2="effect1_dropShadow_610_490" result="shape"/>
</filter>
</defs>
</svg>
