<svg width="306" height="305" viewBox="0 0 306 305" fill="none" xmlns="http://www.w3.org/2000/svg">
<g filter="url(#filter0_d_610_393)">
<ellipse cx="153.134" cy="148.09" rx="148.353" ry="148.09" fill="white"/>
<path d="M296.487 148.09C296.487 227.108 232.314 291.18 153.134 291.18C73.9536 291.18 9.78052 227.108 9.78052 148.09C9.78052 69.0719 73.9536 5 153.134 5C232.314 5 296.487 69.0719 296.487 148.09Z" stroke="white" stroke-width="10"/>
</g>
<path d="M191.73 11.3885C175.341 6.63207 159.958 6.51579 153.727 6.51587C147.496 6.51579 132.706 6.51587 116.318 11.2723C95.8325 17.2178 94.9418 21.0824 101.77 35.9462C107.233 47.8373 133.538 102.338 146.007 128.102C147.195 130.579 150.224 135.65 154.024 135.65C157.824 135.65 160.853 130.696 162.04 128.218C174.51 102.454 200.814 47.9535 206.277 36.0624C213.106 21.1986 212.215 17.334 191.73 11.3885Z" fill="#E32322" stroke="white"/>
<path d="M70.6406 33.3689C56.6958 43.1915 47.0116 55.1233 43.1261 59.9856C39.2405 64.8478 30.0175 76.3891 23.5224 92.1439C15.4037 111.838 17.8746 114.942 33.7733 118.883C46.4922 122.036 105.577 135.496 133.53 141.832C136.21 142.45 142.07 143.249 144.44 140.283C146.81 137.318 144.818 131.864 143.619 129.393C131.219 103.596 104.941 49.0817 99.0355 37.4034C91.6535 22.8056 88.0717 21.0907 70.6406 33.3689Z" fill="#F18E1C" stroke="white"/>
<path d="M284.007 92.2161C277.512 76.4613 268.01 64.3844 264.124 59.5222C260.239 54.66 251.016 43.1187 237.071 33.2962C219.64 21.018 216.058 22.7329 208.676 37.3307C202.77 49.009 176.493 103.523 164.092 129.32C162.893 131.792 160.811 137.317 163.18 140.283C165.55 143.248 171.319 142.522 174 141.904C201.952 135.568 261.037 122.108 273.756 118.955C289.655 115.015 292.126 111.91 284.007 92.2161Z" fill="#C4037D" stroke="white"/>
<path d="M277.399 215.445C285.687 200.552 289.219 185.606 290.604 179.541C291.989 173.477 295.275 159.083 294.272 142.075C293.017 120.816 289.44 119.091 273.405 122.433C260.576 125.108 201.498 138.597 173.563 145.008C170.879 145.613 165.253 147.434 164.409 151.133C163.564 154.831 167.73 158.88 169.886 160.587C192.28 178.448 239.666 216.161 250.067 224.12C263.067 234.07 267.04 234.062 277.399 215.445Z" fill="#2A71B0" stroke="white"/>
<path d="M11.8417 142.049C10.8379 159.057 14.1429 174.055 15.5277 180.119C16.9123 186.183 20.1991 200.577 28.4868 215.471C38.8465 234.087 42.819 234.095 55.8195 224.146C66.2199 216.187 113.607 178.474 136 160.612C138.156 158.906 142.435 154.831 141.591 151.133C140.746 147.434 135.234 145.587 132.55 144.982C104.615 138.571 45.5368 125.082 32.7085 122.407C16.673 119.065 13.0964 120.79 11.8417 142.049Z" fill="#F4E500" stroke="white"/>
<path d="M60.2404 254.954C72.9334 266.343 86.7396 273.117 92.3522 275.818C97.9648 278.519 111.287 284.931 128.119 287.751C149.158 291.276 151.642 288.181 151.958 271.832C152.21 258.753 152.227 198.256 152.204 169.643C152.212 166.897 151.689 161.016 148.266 159.369C144.843 157.721 139.959 160.871 137.812 162.588C115.371 180.39 67.965 218.079 57.8709 226.422C45.2533 236.851 44.3743 240.718 60.2404 254.954Z" fill="#8CBB26" stroke="white"/>
<defs>
<filter id="filter0_d_610_393" x="0.780518" y="0" width="304.707" height="304.18" filterUnits="userSpaceOnUse" color-interpolation-filters="sRGB">
<feFlood flood-opacity="0" result="BackgroundImageFix"/>
<feColorMatrix in="SourceAlpha" type="matrix" values="0 0 0 0 0 0 0 0 0 0 0 0 0 0 0 0 0 0 127 0" result="hardAlpha"/>
<feOffset dy="4"/>
<feGaussianBlur stdDeviation="2"/>
<feComposite in2="hardAlpha" operator="out"/>
<feColorMatrix type="matrix" values="0 0 0 0 0 0 0 0 0 0 0 0 0 0 0 0 0 0 0.25 0"/>
<feBlend mode="normal" in2="BackgroundImageFix" result="effect1_dropShadow_610_393"/>
<feBlend mode="normal" in="SourceGraphic" in2="effect1_dropShadow_610_393" result="shape"/>
</filter>
</defs>
</svg>
